<svg width="32" height="32" fill="none" xmlns="http://www.w3.org/2000/svg"><path d="M16.076.974C7.736.974.893 7.818.893 16.157c0 8.339 6.843 15.183 15.183 15.183 8.339 0 15.182-6.844 15.182-15.183 0-8.34-6.843-15.183-15.182-15.183Zm0 26.748c-6.377 0-11.565-5.189-11.565-11.565 0-6.377 5.188-11.565 11.565-11.565 6.376 0 11.564 5.188 11.564 11.565s-5.188 11.565-11.564 11.565Z" fill="#E51937"/><path d="M17.855 13.488a1.78 1.78 0 1 1-3.559 0 1.78 1.78 0 0 1 3.559 0Z" fill="#E51937"/><path d="M16.075 17.047c-1.576 0-2.9-1.037-3.366-2.459-2.355.257-4.55.75-6.414 1.467 0 .034-.005.067-.005.102 0 1.028.161 2.019.456 2.95 1.456-.76 2.882-1.17 3.992-1.17.928 0 1.642.262 2.18.803 1.243 1.248 1.385 3.782 1.388 7.034a9.764 9.764 0 0 0 1.77.169c.604 0 1.194-.063 1.77-.17.002-3.248.143-5.783 1.387-7.033.538-.54 1.25-.804 2.18-.804 1.096 0 2.524.396 3.994 1.166.294-.93.454-1.92.454-2.945 0-.034-.005-.067-.005-.1-2.02-.779-4.253-1.232-6.414-1.47-.466 1.423-1.79 2.46-3.367 2.46Z" fill="#E51937"/></svg>